<?xml version="1.0" encoding="utf-8"?>
<!-- Generator: Adobe Illustrator 23.1.0, SVG Export Plug-In . SVG Version: 6.00 Build 0)  -->
<svg version="1.1" id="Layer_1" xmlns="http://www.w3.org/2000/svg" xmlns:xlink="http://www.w3.org/1999/xlink" x="0px" y="0px"
	 viewBox="0 0 64 64" style="enable-background:new 0 0 64 64;" xml:space="preserve">
<style type="text/css">
	.st0{fill:#D1D3D4;}
	.st1{fill:#603913;}
	.st2{fill:#A7A9AC;}
	.st3{fill:#C09EC9;}
	.st4{fill:#BCBEC0;}
	.st5{fill:#FFFFFF;}
	.st6{fill:#FBB040;}
	.st7{fill:#F7941D;}
	.st8{fill:#F5ACCC;}
	.st9{fill:#D7DF23;}
	.st10{fill:#A0DAE3;}
	.st11{fill:#00AEEF;}
	.st12{fill:#92278F;}
	.st13{fill:#E6E7E8;}
	.st14{fill:#ED1C24;}
	.st15{fill:#939598;}
	.st16{fill:#C2B59B;}
	.st17{fill:#3C2415;}
	.st18{fill:#C49A6C;}
	.st19{fill:#FDCE8F;}
	.st20{fill:#262262;}
	.st21{fill:#808285;}
	.st22{fill:#231F20;}
	.st23{fill:#BE1E2D;}
	.st24{fill:#FFFAC7;}
	.st25{fill:#27AAE1;}
	.st26{fill:#F1F2F2;}
	.st27{fill:#2BB673;}
	.st28{fill:#58595B;}
	.st29{fill:#00A79D;}
</style>
<g>
	<g>
		<g>
			<path class="st13" d="M2.6,36.4c3.3,8.2,16.6,14,28.5,17.6c11.6,3.2,24-2.8,29.6-17.6c5.7-14.6-7.5-30.1-28.5-26.8
				C11.4,13-0.8,28.4,2.6,36.4z"/>
			<path class="st1" d="M37.2,55.9c-2.1,0-4.3-0.3-6.5-0.9C19.4,51.5,5.2,45.6,1.6,36.8C0.4,34,0.9,30.3,3,26.6
				c3.7-6.7,13.5-15.4,29-17.9c10.9-1.7,20.9,1.5,26.6,8.5c4.6,5.7,5.7,12.8,3,19.6C57,48.8,47.7,55.9,37.2,55.9z M37.8,10.2
				c-1.8,0-3.6,0.1-5.5,0.4C17.6,13,8.3,21.2,4.8,27.5C3,30.8,2.5,33.8,3.5,36c0,0,0,0,0,0c2.5,6.3,12.4,12.4,27.9,17
				c11.9,3.3,23.3-3.6,28.4-17c2.4-6.1,1.4-12.5-2.7-17.6C52.7,13.1,45.8,10.2,37.8,10.2z"/>
		</g>
		<g>
			<path class="st13" d="M2.6,36.4c3.3,8.2,16.6,14,28.5,17.6c11.6,3.2,24-2.8,29.6-17.6c5.7-14.6-7.5-30.1-28.5-26.8
				C11.4,13-0.8,28.4,2.6,36.4z"/>
			<path class="st1" d="M37.2,55.9c-2.1,0-4.3-0.3-6.5-0.9C19.4,51.5,5.2,45.6,1.6,36.8C0.4,34,0.9,30.3,3,26.6
				c3.7-6.7,13.5-15.4,29-17.9c10.9-1.7,20.9,1.5,26.6,8.5c4.6,5.7,5.7,12.8,3,19.6C57,48.8,47.7,55.9,37.2,55.9z M37.8,10.2
				c-1.8,0-3.6,0.1-5.5,0.4C17.6,13,8.3,21.2,4.8,27.5C3,30.8,2.5,33.8,3.5,36c0,0,0,0,0,0c2.5,6.3,12.4,12.4,27.9,17
				c11.9,3.3,23.3-3.6,28.4-17c2.4-6.1,1.4-12.5-2.7-17.6C52.7,13.1,45.8,10.2,37.8,10.2z"/>
		</g>
	</g>
	<g>
		<g>
			<path class="st1" d="M55.9,33.9c-0.1,0-0.2,0-0.4-0.1C55,33.6,54.8,33,55,32.5c1.7-4.4,1-9.1-2-12.8C49.2,15,42.4,12.8,35,14
				c-0.5,0.1-1.1-0.3-1.1-0.8c-0.1-0.5,0.3-1.1,0.8-1.1c8.2-1.3,15.6,1.1,19.9,6.4c3.4,4.3,4.3,9.6,2.3,14.8
				C56.7,33.6,56.3,33.9,55.9,33.9z"/>
		</g>
		<g>
			<path class="st1" d="M55.9,33.9c-0.1,0-0.2,0-0.4-0.1C55,33.6,54.8,33,55,32.5c1.7-4.4,1-9.1-2-12.8C49.2,15,42.4,12.8,35,14
				c-0.5,0.1-1.1-0.3-1.1-0.8c-0.1-0.5,0.3-1.1,0.8-1.1c8.2-1.3,15.6,1.1,19.9,6.4c3.4,4.3,4.3,9.6,2.3,14.8
				C56.7,33.6,56.3,33.9,55.9,33.9z"/>
		</g>
	</g>
	<g>
		<path class="st6" d="M23.2,31.1c0,5.9,4.7,10.6,10.6,10.6c5.9,0,10.6-4.7,10.6-10.6c0-5.9-4.7-10.6-10.6-10.6
			C28,20.5,23.2,25.3,23.2,31.1z"/>
		<path class="st1" d="M33.8,42.7c-6.4,0-11.6-5.2-11.6-11.6s5.2-11.6,11.6-11.6c6.4,0,11.6,5.2,11.6,11.6S40.2,42.7,33.8,42.7z
			 M33.8,21.5c-5.3,0-9.6,4.3-9.6,9.6s4.3,9.6,9.6,9.6c5.3,0,9.6-4.3,9.6-9.6S39.1,21.5,33.8,21.5z"/>
	</g>
</g>
</svg>
