<?xml version="1.0" ?><svg data-name="Layer 1" id="Layer_1" viewBox="0 0 64 64" xmlns="http://www.w3.org/2000/svg"><title/><path d="M61,29c0,8.278-10.393,15.087-25,15.915C35.014,44.971,27.013,55,26,55c-.672,0,1.661-10.013,1-10.037C11.917,44.4,3,37.466,3,29c0-8.837,12.984-16,29-16S61,20.163,61,29Z" style="fill:#7ccdf4"/><path d="M32,12C15.458,12,2,19.626,2,29c0,9.4,9.643,16.133,24.092,16.921-.092.953-.375,2.66-.579,3.887-.757,4.553-.8,5.259-.328,5.812A1.136,1.136,0,0,0,26,56c.828,0,1.653-.771,5.887-5.5A57.772,57.772,0,0,1,36.24,45.9C51.178,45,62,37.912,62,29,62,19.626,48.542,12,32,12Zm3.943,31.917c-.779.044-1.5.73-5.547,5.248-1.006,1.125-2.331,2.605-3.336,3.648.125-.869.293-1.875.425-2.677.752-4.521.793-5.223.341-5.778a1.143,1.143,0,0,0-.789-.395C13.258,43.445,4,37.432,4,29c0-8.271,12.561-15,28-15s28,6.729,28,15C60,36.853,49.883,43.127,35.943,43.917Z"/><rect height="2" width="40" x="11" y="33"/><rect height="2" width="40" x="11" y="27"/><rect height="2" width="30" x="21" y="21"/></svg>